<svg xmlns="http://www.w3.org/2000/svg" viewBox="0 0 64 64"><title>1</title><g id="Layer_28" data-name="Layer 28"><path d="M60,51.83H56.71L34.6,17.77l4.23-6.52a2,2,0,1,0-3.36-2.18L32,14.42,28.53,9.08a2,2,0,1,0-3.36,2.18l4.23,6.52L7.29,51.83H4a2,2,0,0,0,0,4H60a2,2,0,0,0,0-4ZM32,30.16a44.57,44.57,0,0,0,4.43,10.75,30,30,0,0,0,7.95,9.17,20.36,20.36,0,0,0,2.83,1.75H16.78a20.36,20.36,0,0,0,2.83-1.75,30,30,0,0,0,7.95-9.17A44.57,44.57,0,0,0,32,30.16ZM48.65,51.83A19.49,19.49,0,0,1,45,49.3,28.49,28.49,0,0,1,38.2,40a42.52,42.52,0,0,1-3.44-11c-.26-1.47-.43-2.95-.56-4.43L51.94,51.83ZM29.8,24.51c-.13,1.48-.3,3-.56,4.43A42.52,42.52,0,0,1,25.8,40,28.49,28.49,0,0,1,19,49.3a19.49,19.49,0,0,1-3.65,2.53H12.06Z" id="id_103" style="fill: rgb(214, 91, 39);"></path><path d="M52.38,21.25a9.53,9.53,0,0,0,8.48-5.11h0A2,2,0,0,0,61.08,15h0s0-.06,0-.09a2,2,0,0,0-.07-.29s0-.09-.05-.13a2,2,0,0,0-.1-.23l-.06-.09a2,2,0,0,0-.17-.23l0,0a2,2,0,0,0-.24-.23l0,0a1.91,1.91,0,0,0-1.44-.4h0a4.34,4.34,0,0,1-.52,0A5.64,5.64,0,0,1,52.7,7.62,5.46,5.46,0,0,1,53.36,5a2,2,0,0,0,.16-.37s0-.06,0-.09a2,2,0,0,0,.06-.3,2,2,0,0,0,0-.4h0s0-.07,0-.1a2,2,0,0,0-.06-.28,2,2,0,0,0-.08-.19c0-.06,0-.12-.07-.17s-.07-.11-.11-.16a2,2,0,0,0-.11-.16L53,2.66l-.16-.16-.11-.08a2,2,0,0,0-.2-.14,2,2,0,0,0-1.15-.23h0a9.62,9.62,0,0,0,1,19.2ZM48.72,7.37c0,.08,0,.17,0,.25a9.64,9.64,0,0,0,6.24,9,5.61,5.61,0,0,1-6.23-9.25Z" id="id_104" style="fill: rgb(120, 108, 103);"></path></g></svg>