<svg width="64" height="64" viewBox="0 0 64 64" fill="none" xmlns="http://www.w3.org/2000/svg">
<path d="M45 33H19C16.8783 33 14.8434 33.8429 13.3431 35.3431C11.8429 36.8434 11 38.8783 11 41V49H19V61H45V49H53V41C53 38.8783 52.1571 36.8434 50.6569 35.3431C49.1566 33.8429 47.1217 33 45 33Z" fill="#d95f2b" id="id_146"></path>
<path d="M11 49V52H12C13.0609 52 14.0783 52.4214 14.8284 53.1716C15.5786 53.9217 16 54.9391 16 56V61H19V49H11Z" fill="#CFF09E" id="id_147"></path>
<path d="M21 31C21.5304 31 22.0391 31.2107 22.4142 31.5858C22.7893 31.9609 23 32.4696 23 33V47C23 48.0609 22.5786 49.0783 21.8284 49.8284C21.0783 50.5786 20.0609 51 19 51V33C19 32.4696 19.2107 31.9609 19.5858 31.5858C19.9609 31.2107 20.4696 31 21 31V31Z" fill="#A8DBA8" id="id_148"></path>
<path d="M45 49V61H48V56C48 54.9391 48.4214 53.9217 49.1716 53.1716C49.9217 52.4214 50.9391 52 52 52H53V49H45Z" fill="#CFF09E" id="id_149"></path>
<path d="M45 51C43.9391 51 42.9217 50.5786 42.1716 49.8284C41.4214 49.0783 41 48.0609 41 47V33C41 32.4696 41.2107 31.9609 41.5858 31.5858C41.9609 31.2107 42.4696 31 43 31C43.5304 31 44.0391 31.2107 44.4142 31.5858C44.7893 31.9609 45 32.4696 45 33V51Z" fill="#A8DBA8" id="id_150"></path>
<path d="M36 45H28C26.8954 45 26 45.8954 26 47V51C26 52.1046 26.8954 53 28 53H36C37.1046 53 38 52.1046 38 51V47C38 45.8954 37.1046 45 36 45Z" fill="#CFF09E" id="id_151"></path>
<path d="M32 51C33.1046 51 34 50.1046 34 49C34 47.8954 33.1046 47 32 47C30.8954 47 30 47.8954 30 49C30 50.1046 30.8954 51 32 51Z" fill="#79BD9A" id="id_152"></path>
<path d="M32 31C30.2437 30.9969 28.5192 30.5313 27 29.65V33L32 39L37 33V29.65C35.4808 30.5313 33.7563 30.9969 32 31V31Z" fill="#CFF09E" id="id_153"></path>
<path d="M36 30C33.3478 30 30.8043 28.9464 28.9289 27.0711C27.0536 25.1957 26 22.6522 26 20H42V17H22V21C21.9983 22.6967 22.4283 24.366 23.2496 25.8507C24.0709 27.3354 25.2564 28.5868 26.6947 29.4869C28.133 30.3871 29.7766 30.9065 31.471 30.9963C33.1653 31.086 34.8547 30.7432 36.38 30H36Z" fill="#CFF09E" id="id_154"></path>
<path d="M20 15C19.4696 15 18.9609 14.7893 18.5858 14.4142C18.2107 14.0391 18 13.5304 18 13H16C15.4696 13 14.9609 13.2107 14.5858 13.5858C14.2107 13.9609 14 14.4696 14 15V17H50V15H20Z" fill="#e06631" id="id_155"></path>
<path d="M41 12C38.46 11.9992 35.9985 11.1192 34.0335 9.5097C32.0685 7.90016 30.7211 5.66018 30.22 3.17004C27.9157 3.58686 25.8308 4.7991 24.3287 6.59547C22.8265 8.39183 22.0024 10.6584 22 13H42C41.9981 12.6659 41.9781 12.332 41.94 12C41.63 12 41.32 12 41 12Z" fill="#de5f28" id="id_156"></path>
<path d="M28 22C28.5523 22 29 21.5523 29 21C29 20.4477 28.5523 20 28 20C27.4477 20 27 20.4477 27 21C27 21.5523 27.4477 22 28 22Z" fill="#3B8686" id="id_157"></path>
<path d="M36 22C36.5523 22 37 21.5523 37 21C37 20.4477 36.5523 20 36 20C35.4477 20 35 20.4477 35 21C35 21.5523 35.4477 22 36 22Z" fill="#3B8686" id="id_158"></path>
<path d="M45.83 32C45.6218 31.4174 45.2386 30.9135 44.7329 30.5572C44.2271 30.2009 43.6236 30.0096 43.005 30.0096C42.3864 30.0096 41.7829 30.2009 41.2771 30.5572C40.7714 30.9135 40.3882 31.4174 40.18 32H38V30.21C39.5337 29.2119 40.7942 27.8469 41.6673 26.2387C42.5403 24.6305 42.9984 22.8299 43 21V18H50C50.2652 18 50.5196 17.8946 50.7071 17.7071C50.8946 17.5196 51 17.2652 51 17V15C51 14.2043 50.6839 13.4413 50.1213 12.8787C49.5587 12.3161 48.7956 12 48 12H43C42.7394 9.27641 41.4732 6.74769 39.4485 4.90747C37.4238 3.06724 34.786 2.04761 32.05 2.04761C29.314 2.04761 26.6762 3.06724 24.6515 4.90747C22.6268 6.74769 21.3606 9.27641 21.1 12H16C15.2043 12 14.4413 12.3161 13.8787 12.8787C13.3161 13.4413 13 14.2043 13 15V17C13 17.2652 13.1054 17.5196 13.2929 17.7071C13.4804 17.8946 13.7348 18 14 18H21V21C21.0016 22.8299 21.4597 24.6305 22.3327 26.2387C23.2058 27.8469 24.4663 29.2119 26 30.21V32H23.82C23.6118 31.4174 23.2286 30.9135 22.7229 30.5572C22.2171 30.2009 21.6136 30.0096 20.995 30.0096C20.3764 30.0096 19.7728 30.2009 19.2671 30.5572C18.7614 30.9135 18.3782 31.4174 18.17 32C15.9297 32.2075 13.8483 33.2465 12.3361 34.9124C10.8239 36.5783 9.99041 38.7501 10 41V61C10 61.2652 10.1054 61.5196 10.2929 61.7071C10.4804 61.8946 10.7348 62 11 62H53C53.2652 62 53.5196 61.8946 53.7071 61.7071C53.8946 61.5196 54 61.2652 54 61V41C54.0096 38.7501 53.1761 36.5783 51.6639 34.9124C50.1516 33.2465 48.0703 32.2075 45.83 32V32ZM52 41V48H46V34.08C47.6646 34.3203 49.187 35.1518 50.2888 36.4225C51.3906 37.6932 51.998 39.3181 52 41V41ZM20 51.9C21.1294 51.6695 22.1444 51.0558 22.8733 50.1629C23.6022 49.27 24.0002 48.1526 24 47V34H24.15L26 44.82C25.6923 45.095 25.4447 45.4306 25.2727 45.8057C25.1006 46.1808 25.0078 46.5874 25 47V51C25 51.7956 25.3161 52.5587 25.8787 53.1213C26.4413 53.6839 27.2043 54 28 54H36C36.7956 54 37.5587 53.6839 38.1213 53.1213C38.6839 52.5587 39 51.7956 39 51V47C38.9922 46.5874 38.8994 46.1808 38.7273 45.8057C38.5553 45.4306 38.3077 45.095 38 44.82L39.85 34H40V47C39.9998 48.1526 40.3978 49.27 41.1267 50.1629C41.8556 51.0558 42.8706 51.6695 44 51.9V60H20V51.9ZM26.53 34L31.23 39.64C31.3238 39.7532 31.4415 39.8444 31.5746 39.9069C31.7077 39.9695 31.8529 40.0019 32 40.0019C32.1471 40.0019 32.2923 39.9695 32.4254 39.9069C32.5585 39.8444 32.6762 39.7532 32.77 39.64L37.47 34H37.82L36.15 44H36H31V43C31 42.7348 30.8946 42.4804 30.7071 42.2929C30.5196 42.1053 30.2652 42 30 42C29.7348 42 29.4804 42.1053 29.2929 42.2929C29.1054 42.4804 29 42.7348 29 43V44H28H27.85L26.18 34H26.53ZM27 47C27 46.7348 27.1054 46.4804 27.2929 46.2929C27.4804 46.1053 27.7348 46 28 46H36C36.2652 46 36.5196 46.1053 36.7071 46.2929C36.8946 46.4804 37 46.7348 37 47V51C37 51.2652 36.8946 51.5196 36.7071 51.7071C36.5196 51.8946 36.2652 52 36 52H28C27.7348 52 27.4804 51.8946 27.2929 51.7071C27.1054 51.5196 27 51.2652 27 51V47ZM43 32C43.2652 32 43.5196 32.1053 43.7071 32.2929C43.8946 32.4804 44 32.7348 44 33V49.83C43.4148 49.6231 42.9083 49.2398 42.5501 48.733C42.1919 48.2261 41.9997 47.6206 42 47V33C42 32.7348 42.1054 32.4804 42.2929 32.2929C42.4804 32.1053 42.7348 32 43 32V32ZM32 3.99999C34.2131 4.00104 36.3482 4.81745 37.9973 6.29321C39.6465 7.76898 40.6941 9.80063 40.94 12H23.06C23.3059 9.80063 24.3535 7.76898 26.0027 6.29321C27.6518 4.81745 29.7869 4.00104 32 3.99999V3.99999ZM15 15C15 14.7348 15.1054 14.4804 15.2929 14.2929C15.4804 14.1053 15.7348 14 16 14H48C48.2652 14 48.5196 14.1053 48.7071 14.2929C48.8946 14.4804 49 14.7348 49 15V16H15V15ZM23 21V18H41V21C41 23.3869 40.0518 25.6761 38.364 27.364C36.6761 29.0518 34.3869 30 32 30C29.613 30 27.3239 29.0518 25.636 27.364C23.9482 25.6761 23 23.3869 23 21V21ZM32 32C33.3689 31.9961 34.7251 31.7385 36 31.24V32.64L32 37.44L28 32.64V31.24C29.2749 31.7385 30.6311 31.9961 32 32ZM21 32C21.2652 32 21.5196 32.1053 21.7071 32.2929C21.8946 32.4804 22 32.7348 22 33V47C22.0003 47.6206 21.8081 48.2261 21.4499 48.733C21.0917 49.2398 20.5852 49.6231 20 49.83V33C20 32.7348 20.1054 32.4804 20.2929 32.2929C20.4804 32.1053 20.7348 32 21 32V32ZM18 34.08V48H12V41C12.002 39.3181 12.6094 37.6932 13.7112 36.4225C14.813 35.1518 16.3354 34.3203 18 34.08ZM12 60V50H18V60H12ZM52 60H46V50H52V60Z" fill="#3B8686" id="id_159"></path>
<path d="M29 49C29 49.5933 29.1759 50.1734 29.5056 50.6667C29.8352 51.1601 30.3038 51.5446 30.8519 51.7716C31.4001 51.9987 32.0033 52.0581 32.5853 51.9424C33.1672 51.8266 33.7018 51.5409 34.1213 51.1213C34.5409 50.7018 34.8266 50.1672 34.9424 49.5853C35.0581 49.0033 34.9987 48.4001 34.7716 47.852C34.5446 47.3038 34.1601 46.8352 33.6667 46.5056C33.1734 46.1759 32.5933 46 32 46C31.2044 46 30.4413 46.3161 29.8787 46.8787C29.3161 47.4413 29 48.2044 29 49V49ZM32 48C32.1978 48 32.3911 48.0586 32.5556 48.1685C32.72 48.2784 32.8482 48.4346 32.9239 48.6173C32.9996 48.8 33.0194 49.0011 32.9808 49.1951C32.9422 49.3891 32.847 49.5673 32.7071 49.7071C32.5673 49.847 32.3891 49.9422 32.1951 49.9808C32.0011 50.0194 31.8 49.9996 31.6173 49.9239C31.4346 49.8482 31.2784 49.72 31.1685 49.5556C31.0586 49.3911 31 49.1978 31 49C31 48.7348 31.1054 48.4804 31.2929 48.2929C31.4804 48.1054 31.7348 48 32 48Z" fill="#3B8686" id="id_160"></path>
</svg>